<svg width="117" height="134" viewBox="0 0 117 134" fill="none" xmlns="http://www.w3.org/2000/svg">
  <path d="M58.3853 16.9691V0H53.4823L0.236588 133.329H10.638L27.8233 91.3723L33.5827 77.3867L58.3853 16.9691Z" fill="url(#paint0_linear_27_934)" />
  <path d="M58.3853 16.9691V0H63.2882L116.534 133.329H106.132L88.9472 91.3723L83.1878 77.3867L58.3853 16.9691Z" fill="url(#paint1_linear_27_934)" />
  <rect x="75.4536" y="127.156" width="32.0977" height="6.17264" fill="url(#paint2_linear_27_934)" />
  <path d="M39.418 133.331V74.0716H64.6321C75.8751 74.0716 81.4966 78.7975 81.4966 88.2494C81.4966 95.9376 75.9991 101.628 65.0041 105.321L85.2994 133.331H75.2137L56.4065 106.602V101.6C67.7046 99.8093 73.3537 95.4692 73.3537 88.58C73.3537 83.1239 70.2123 80.3958 63.9294 80.3958H47.0649V133.331H39.418Z" fill="url(#paint3_linear_27_934)" />
  <defs>
    <linearGradient id="paint0_linear_27_934" x1="58.3853" y1="66.6645" x2="0.236588" y2="66.6645" gradientUnits="userSpaceOnUse">
      <stop stop-color="#366DFF" />
      <stop offset="0.386428" stop-color="#7BABFF" />
      <stop offset="0.5" stop-color="#2061A7" />
      <stop offset="1" stop-color="#347EFF" />
    </linearGradient>
    <linearGradient id="paint1_linear_27_934" x1="58.3853" y1="66.6645" x2="116.534" y2="66.6645" gradientUnits="userSpaceOnUse">
      <stop stop-color="#366DFF" />
      <stop offset="0.386428" stop-color="#7BABFF" />
      <stop offset="0.5" stop-color="#2061A7" />
      <stop offset="1" stop-color="#347EFF" />
    </linearGradient>
    <linearGradient id="paint2_linear_27_934" x1="75.4536" y1="130.243" x2="107.551" y2="130.243" gradientUnits="userSpaceOnUse">
      <stop stop-color="#366DFF" />
      <stop offset="0.386428" stop-color="#7BABFF" />
      <stop offset="0.5" stop-color="#2061A7" />
      <stop offset="1" stop-color="#2E76E5" />
    </linearGradient>
    <linearGradient id="paint3_linear_27_934" x1="39.418" y1="103.701" x2="85.2994" y2="103.701" gradientUnits="userSpaceOnUse">
      <stop stop-color="#366DFF" />
      <stop offset="0.386428" stop-color="#7BABFF" />
      <stop offset="0.5" stop-color="#2061A7" />
      <stop offset="1" stop-color="#347EFF" />
    </linearGradient>
  </defs>
</svg>
