<svg width="414" height="89" viewBox="0 0 414 89" fill="none" xmlns="http://www.w3.org/2000/svg">
<path d="M378.698 44.336C378.698 35.9383 384.236 31.7395 395.311 31.7395C398.873 31.7395 402.435 31.9995 405.997 32.5195V28.6586C405.997 23.9528 402.318 21.5999 394.96 21.5999C390.748 21.5999 386.432 22.2499 382.013 23.5498V17.7001C386.432 16.4002 390.748 15.7502 394.96 15.7502C407.128 15.7502 413.211 19.988 413.211 28.4636V56.6984H409.155L406.66 52.6426C402.578 55.3465 398.132 56.6984 393.322 56.6984C383.573 56.6984 378.698 52.5776 378.698 44.336ZM395.311 37.5892C389.045 37.5892 385.912 39.7991 385.912 44.219C385.912 48.6388 388.382 50.8487 393.322 50.8487C398.314 50.8487 402.539 49.5227 405.997 46.8708V38.3692C402.435 37.8492 398.873 37.5892 395.311 37.5892Z" fill="#ffffff"/>
<path d="M335.213 56.6984V15.7502H340.088L341.375 20.976C345.56 17.4921 350.162 15.7502 355.18 15.7502C365.398 15.7502 370.506 20.833 370.506 30.9985V56.6984H363.292V30.8815C363.292 24.7978 360.263 21.7559 354.205 21.7559C350.071 21.7559 346.145 23.4849 342.428 26.9427V56.6984H335.213Z" fill="#ffffff"/>
<path d="M309.629 15.7502C321.276 15.7502 327.1 21.5089 327.1 33.0264C327.1 34.6644 326.983 36.4193 326.749 38.2912H298.007C298.007 46.6629 302.895 50.8487 312.671 50.8487C317.324 50.8487 321.458 50.3287 325.072 49.2887V55.1385C321.458 56.1784 317.064 56.6984 311.891 56.6984C297.825 56.6984 290.792 49.7177 290.792 35.7563C290.792 22.4189 297.071 15.7502 309.629 15.7502ZM298.007 32.2855H320.158C320.002 25.1098 316.492 21.5219 309.629 21.5219C302.349 21.5219 298.475 25.1098 298.007 32.2855Z" fill="#ffffff"/>
<path d="M267.977 56.6984V15.7502H272.852L274.139 20.976C277.727 17.4921 282.042 15.7502 287.086 15.7502V21.7559C282.198 21.7559 278.234 23.4849 275.192 26.9427V56.6984H267.977Z" fill="#ffffff"/>
<path d="M214.782 56.6984H207.294L230.966 0.930786H238.961L262.75 56.6984H254.755L247.541 39.1491H229.094L231.083 33.2994H245.123L234.71 8.02848L214.782 56.6984Z" fill="#ffffff"/>
<path d="M183.736 0.930786V56.6984H176.521V0.930786H183.736Z" fill="#ffffff"/>
<path d="M131.477 44.336C131.477 35.9383 137.015 31.7395 148.09 31.7395C151.652 31.7395 155.214 31.9995 158.776 32.5195V28.6586C158.776 23.9528 155.097 21.5999 147.739 21.5999C143.528 21.5999 139.212 22.2499 134.792 23.5498V17.7001C139.212 16.4002 143.528 15.7502 147.739 15.7502C159.907 15.7502 165.991 19.988 165.991 28.4636V56.6984H161.935L159.439 52.6426C155.357 55.3465 150.911 56.6984 146.101 56.6984C136.352 56.6984 131.477 52.5776 131.477 44.336ZM148.09 37.5892C141.825 37.5892 138.692 39.7991 138.692 44.219C138.692 48.6388 141.162 50.8487 146.101 50.8487C151.093 50.8487 155.318 49.5227 158.776 46.8708V38.3692C155.214 37.8492 151.652 37.5892 148.09 37.5892Z" fill="#ffffff"/>
<path d="M89.2007 15.7502H97.0393L108.622 47.7288L120.594 15.7502H128.238L111.235 57.9074C108.219 65.343 103.695 69.9838 97.6633 71.8298L94.8944 66.721C99.4702 64.7191 102.798 61.4562 104.878 56.9324L89.2007 15.7502Z" fill="#ffffff"/>
<path d="M54.14 36.0683C54.14 45.9219 58.2348 50.8487 66.4244 50.8487C74.6141 50.8487 78.7089 45.9219 78.7089 36.0683C78.7089 26.4227 74.6141 21.5999 66.4244 21.5999C58.2348 21.5999 54.14 26.4227 54.14 36.0683ZM46.9253 36.2243C46.9253 22.5749 53.425 15.7502 66.4244 15.7502C79.4239 15.7502 85.9236 22.5749 85.9236 36.2243C85.9236 49.8477 79.4239 56.6594 66.4244 56.6594C53.477 56.6594 46.9773 49.8477 46.9253 36.2243Z" fill="#ffffff"/>
<path d="M0.320312 56.6984V0.930786H24.1093C34.7168 0.930786 40.0206 5.38959 40.0206 14.3072C40.0206 21.5609 34.8338 26.9297 24.4603 30.4135L43.6084 56.6984H34.0929L16.3486 31.6225V26.9037C27.0082 25.2137 32.3379 21.1189 32.3379 14.6192C32.3379 9.47142 29.3741 6.89753 23.4463 6.89753H7.535V56.6984H0.320312Z" fill="#ffffff"/>
<path d="M270.583 75.8076C271.787 75.8076 272.904 75.9119 273.935 76.1204C274.971 76.323 275.922 76.5851 276.785 76.9069V79.9098C276.446 79.7191 276.062 79.5344 275.633 79.3557C275.21 79.1769 274.748 79.019 274.247 78.882C273.747 78.7449 273.211 78.6347 272.639 78.5513C272.067 78.4679 271.465 78.4262 270.833 78.4262C270.047 78.4262 269.362 78.4828 268.778 78.596C268.194 78.7092 267.693 78.8611 267.276 79.0518C266.859 79.2424 266.517 79.4659 266.249 79.7221C265.981 79.9723 265.769 80.2404 265.614 80.5264C265.459 80.8124 265.352 81.1043 265.292 81.4023C265.233 81.7002 265.203 81.9891 265.203 82.2692C265.203 82.5134 265.227 82.7786 265.274 83.0646C265.328 83.3505 265.423 83.6365 265.56 83.9225C265.703 84.2085 265.9 84.4826 266.15 84.7447C266.401 85.0069 266.725 85.2393 267.124 85.4418C267.53 85.6444 268.015 85.8082 268.581 85.9334C269.147 86.0525 269.82 86.1121 270.601 86.1121C270.994 86.1121 271.337 86.1002 271.629 86.0764C271.921 86.0525 272.186 86.0198 272.424 85.9781C272.668 85.9363 272.895 85.8857 273.103 85.8261C273.318 85.7665 273.538 85.704 273.765 85.6384V84.1549H270.047V81.4648H277.08V87.7387C276.64 87.8876 276.145 88.0247 275.597 88.1498C275.055 88.2689 274.492 88.3702 273.908 88.4536C273.33 88.543 272.749 88.6115 272.165 88.6592C271.581 88.7069 271.03 88.7307 270.512 88.7307C269.707 88.7307 268.936 88.6771 268.197 88.5698C267.458 88.4626 266.767 88.2987 266.124 88.0783C265.486 87.8519 264.902 87.5659 264.372 87.2203C263.848 86.8747 263.398 86.4636 263.022 85.987C262.653 85.5103 262.364 84.9652 262.155 84.3515C261.953 83.7319 261.852 83.0377 261.852 82.2692C261.852 81.5065 261.959 80.8154 262.173 80.1957C262.388 79.5761 262.686 79.028 263.067 78.5513C263.454 78.0747 263.916 77.6636 264.452 77.318C264.994 76.9724 265.587 76.6894 266.231 76.469C266.88 76.2426 267.571 76.0757 268.304 75.9685C269.043 75.8612 269.803 75.8076 270.583 75.8076Z" fill="#ffffff"/>
<path d="M247.002 88.4L238.717 79.9634V88.4H235.401V76.1204H239.003L247.297 84.5928V76.1204H250.594V88.4H247.002Z" fill="#ffffff"/>
<path d="M219.998 88.4V76.1204H223.313V88.4H219.998Z" fill="#ffffff"/>
<path d="M204.62 88.4V79.7757L200.062 88.4H196.88L192.323 79.7757V88.4H189.007V76.1204H193.511L198.471 85.415L203.431 76.1204H207.918V88.4H204.62Z" fill="#ffffff"/>
<path d="M173.907 86.0764H167.061L165.908 88.4H162.208L168.634 76.1204H172.334L178.76 88.4H175.06L173.907 86.0764ZM168.25 83.6812H172.736L170.502 79.159L168.25 83.6812Z" fill="#ffffff"/>
<path d="M145.732 75.8076C146.935 75.8076 148.052 75.9119 149.083 76.1204C150.12 76.323 151.07 76.5851 151.934 76.9069V79.9098C151.594 79.7191 151.21 79.5344 150.781 79.3557C150.358 79.1769 149.896 79.019 149.396 78.882C148.895 78.7449 148.359 78.6347 147.787 78.5513C147.215 78.4679 146.613 78.4262 145.982 78.4262C145.195 78.4262 144.51 78.4828 143.926 78.596C143.342 78.7092 142.842 78.8611 142.425 79.0518C142.008 79.2424 141.665 79.4659 141.397 79.7221C141.129 79.9723 140.917 80.2404 140.763 80.5264C140.608 80.8124 140.5 81.1043 140.441 81.4023C140.381 81.7002 140.351 81.9891 140.351 82.2692C140.351 82.5134 140.375 82.7786 140.423 83.0646C140.477 83.3505 140.572 83.6365 140.709 83.9225C140.852 84.2085 141.049 84.4826 141.299 84.7447C141.549 85.0069 141.874 85.2393 142.273 85.4418C142.678 85.6444 143.164 85.8082 143.73 85.9334C144.296 86.0525 144.969 86.1121 145.749 86.1121C146.143 86.1121 146.485 86.1002 146.777 86.0764C147.069 86.0525 147.334 86.0198 147.573 85.9781C147.817 85.9363 148.043 85.8857 148.252 85.8261C148.466 85.7665 148.687 85.704 148.913 85.6384V84.1549H145.195V81.4648H152.229V87.7387C151.788 87.8876 151.293 88.0247 150.745 88.1498C150.203 88.2689 149.64 88.3702 149.056 88.4536C148.478 88.543 147.897 88.6115 147.313 88.6592C146.73 88.7069 146.178 88.7307 145.66 88.7307C144.856 88.7307 144.084 88.6771 143.345 88.5698C142.607 88.4626 141.915 88.2987 141.272 88.0783C140.634 87.8519 140.051 87.5659 139.52 87.2203C138.996 86.8747 138.546 86.4636 138.171 85.987C137.801 85.5103 137.512 84.9652 137.304 84.3515C137.101 83.7319 137 83.0377 137 82.2692C137 81.5065 137.107 80.8154 137.322 80.1957C137.536 79.5761 137.834 79.028 138.215 78.5513C138.603 78.0747 139.064 77.6636 139.601 77.318C140.143 76.9724 140.736 76.6894 141.379 76.469C142.029 76.2426 142.72 76.0757 143.453 75.9685C144.191 75.8612 144.951 75.8076 145.732 75.8076Z" fill="#ffffff"/>
<defs>
<linearGradient id="paint0_linear_27_978" x1="378.698" y1="36.2243" x2="413.211" y2="36.2243" gradientUnits="userSpaceOnUse">
<stop stop-color="#5181FF"/>
<stop offset="0.386428" stop-color="#7BABFF"/>
<stop offset="0.5" stop-color="#2E69A9"/>
<stop offset="1" stop-color="#4287FF"/>
</linearGradient>
<linearGradient id="paint1_linear_27_978" x1="335.213" y1="36.2243" x2="370.506" y2="36.2243" gradientUnits="userSpaceOnUse">
<stop stop-color="#5181FF"/>
<stop offset="0.386428" stop-color="#7BABFF"/>
<stop offset="0.5" stop-color="#2E69A9"/>
<stop offset="1" stop-color="#4287FF"/>
</linearGradient>
<linearGradient id="paint2_linear_27_978" x1="290.792" y1="36.2243" x2="327.1" y2="36.2243" gradientUnits="userSpaceOnUse">
<stop stop-color="#5181FF"/>
<stop offset="0.386428" stop-color="#7BABFF"/>
<stop offset="0.5" stop-color="#2E69A9"/>
<stop offset="1" stop-color="#4287FF"/>
</linearGradient>
<linearGradient id="paint3_linear_27_978" x1="267.977" y1="36.2243" x2="287.086" y2="36.2243" gradientUnits="userSpaceOnUse">
<stop stop-color="#5181FF"/>
<stop offset="0.386428" stop-color="#7BABFF"/>
<stop offset="0.5" stop-color="#2E69A9"/>
<stop offset="1" stop-color="#4287FF"/>
</linearGradient>
<linearGradient id="paint4_linear_27_978" x1="207.294" y1="28.8146" x2="262.75" y2="28.8146" gradientUnits="userSpaceOnUse">
<stop stop-color="#5181FF"/>
<stop offset="0.386428" stop-color="#7BABFF"/>
<stop offset="0.5" stop-color="#2E69A9"/>
<stop offset="1" stop-color="#4287FF"/>
</linearGradient>
<linearGradient id="paint5_linear_27_978" x1="176.521" y1="28.8146" x2="183.736" y2="28.8146" gradientUnits="userSpaceOnUse">
<stop stop-color="#5181FF"/>
<stop offset="0.386428" stop-color="#7BABFF"/>
<stop offset="0.5" stop-color="#2E69A9"/>
<stop offset="1" stop-color="#4287FF"/>
</linearGradient>
<linearGradient id="paint6_linear_27_978" x1="131.477" y1="36.2243" x2="165.991" y2="36.2243" gradientUnits="userSpaceOnUse">
<stop stop-color="#5181FF"/>
<stop offset="0.386428" stop-color="#7BABFF"/>
<stop offset="0.5" stop-color="#2E69A9"/>
<stop offset="1" stop-color="#4287FF"/>
</linearGradient>
<linearGradient id="paint7_linear_27_978" x1="89.2007" y1="43.79" x2="128.238" y2="43.79" gradientUnits="userSpaceOnUse">
<stop stop-color="#5181FF"/>
<stop offset="0.386428" stop-color="#7BABFF"/>
<stop offset="0.5" stop-color="#2E69A9"/>
<stop offset="1" stop-color="#4287FF"/>
</linearGradient>
<linearGradient id="paint8_linear_27_978" x1="46.9253" y1="36.2048" x2="85.9236" y2="36.2048" gradientUnits="userSpaceOnUse">
<stop stop-color="#5181FF"/>
<stop offset="0.386428" stop-color="#7BABFF"/>
<stop offset="0.5" stop-color="#2E69A9"/>
<stop offset="1" stop-color="#4287FF"/>
</linearGradient>
<linearGradient id="paint9_linear_27_978" x1="0.320312" y1="28.8146" x2="43.6084" y2="28.8146" gradientUnits="userSpaceOnUse">
<stop stop-color="#5181FF"/>
<stop offset="0.386428" stop-color="#7BABFF"/>
<stop offset="0.5" stop-color="#2E69A9"/>
<stop offset="1" stop-color="#4287FF"/>
</linearGradient>
<linearGradient id="paint10_linear_27_978" x1="261.852" y1="82.2692" x2="277.08" y2="82.2692" gradientUnits="userSpaceOnUse">
<stop stop-color="#74A7FF"/>
<stop offset="1" stop-color="#5191FF"/>
</linearGradient>
<linearGradient id="paint11_linear_27_978" x1="235.401" y1="82.2602" x2="250.594" y2="82.2602" gradientUnits="userSpaceOnUse">
<stop stop-color="#74A7FF"/>
<stop offset="1" stop-color="#5191FF"/>
</linearGradient>
<linearGradient id="paint12_linear_27_978" x1="219.998" y1="82.2602" x2="223.313" y2="82.2602" gradientUnits="userSpaceOnUse">
<stop stop-color="#74A7FF"/>
<stop offset="1" stop-color="#5191FF"/>
</linearGradient>
<linearGradient id="paint13_linear_27_978" x1="189.007" y1="82.2602" x2="207.918" y2="82.2602" gradientUnits="userSpaceOnUse">
<stop stop-color="#74A7FF"/>
<stop offset="1" stop-color="#5191FF"/>
</linearGradient>
<linearGradient id="paint14_linear_27_978" x1="162.208" y1="82.2602" x2="178.76" y2="82.2602" gradientUnits="userSpaceOnUse">
<stop stop-color="#74A7FF"/>
<stop offset="1" stop-color="#5191FF"/>
</linearGradient>
<linearGradient id="paint15_linear_27_978" x1="137" y1="82.2692" x2="152.229" y2="82.2692" gradientUnits="userSpaceOnUse">
<stop stop-color="#74A7FF"/>
<stop offset="1" stop-color="#5191FF"/>
</linearGradient>
</defs>
</svg>
